<svg 
 xmlns="http://www.w3.org/2000/svg"
 xmlns:xlink="http://www.w3.org/1999/xlink"
 width="517px" height="530px">
<rect  x="0" y="0" width="513" height="526" fill="white" fill-opacity="0.0" />
<path fill-rule="evenodd"  fill="rgb(255, 255, 255)"
 d="M343.744,236.301 C346.532,219.456 347.928,209.666 347.928,206.931 C347.928,204.587 347.104,203.416 345.456,203.416 C343.904,203.416 342.595,204.686 341.529,207.224 C338.11,216.112 330.927,226.171 320.279,237.400 C309.629,248.631 297.613,255.175 284.230,257.29 C267.426,257.615 258.680,257.908 257.998,257.908 C249.498,257.908 243.634,256.468 240.411,253.586 C237.188,250.707 235.62,247.459 234.37,243.845 C233.11,240.233 232.499,232.419 232.499,220.408 L232.206,181.736 L233.377,112.449 C233.377,102.99 234.133,95.141 235.648,91.575 C237.161,88.11 240.237,84.862 244.876,82.126 C249.514,79.394 255.300,78.25 262.235,78.25 C265.66,78.25 266.483,77.146 266.483,75.388 C266.483,73.436 265.165,72.458 262.528,72.458 L236.747,72.898 C215.946,72.898 197.782,72.410 182.254,71.433 C180.398,71.337 179.128,71.287 178.446,71.287 C175.612,71.287 174.198,72.188 174.198,73.990 C174.198,75.793 175.759,76.846 178.885,77.146 C184.841,77.636 190.187,79.664 194.925,83.230 C199.661,86.798 202.785,91.955 204.300,98.697 C205.813,105.440 206.571,117.315 206.571,134.321 L206.424,186.803 C206.424,215.441 205.740,233.8 204.374,239.508 C203.5,246.8 200.467,250.991 196.756,254.461 C193.44,257.931 186.452,259.958 176.981,260.544 C174.51,260.643 172.586,261.474 172.586,263.35 C172.586,264.987 176.299,265.964 183.728,265.964 C185.585,265.964 190.815,265.719 199.416,265.232 C208.17,264.742 213.2,264.499 214.371,264.499 L251.610,264.499 C281.520,264.499 301.216,264.669 310.696,265.12 C320.176,265.353 326.727,265.525 330.343,265.525 C331.25,265.525 333.763,265.426 338.553,265.232 C339.226,262.792 340.956,253.147 343.744,236.301 Z"/>
<path fill-rule="evenodd"  fill="rgb(255, 255, 255)"
 d="M242.609,363.457 C242.609,398.906 242.243,420.343 241.510,427.763 C240.778,435.186 238.43,441.70 233.307,445.415 C228.569,449.761 222.344,451.933 214.630,451.933 C210.39,451.933 207.746,452.862 207.746,454.716 C207.746,456.573 208.917,457.500 211.261,457.500 L301.349,457.500 C305.158,457.500 307.62,456.524 307.62,454.570 C307.62,452.910 305.59,452.80 301.56,452.80 C284.551,452.80 274.957,446.465 272.272,435.234 C269.585,424.5 268.244,387.41 268.244,324.345 C268.244,305.401 268.830,288.555 270.1,273.808 C290.521,274.199 304.151,274.980 310.893,276.152 C317.636,277.324 323.743,279.938 329.215,283.989 C334.686,288.42 339.964,294.23 345.45,301.933 C347.975,306.621 349.854,309.381 350.678,310.209 C351.502,311.40 352.545,311.455 353.809,311.455 C355.846,311.455 356.867,310.283 356.867,307.939 C356.867,307.60 356.816,306.231 356.720,305.449 C356.134,301.933 355.548,295.831 354.962,287.138 C354.571,279.521 353.791,272.197 352.619,265.166 C338.652,265.166 327.666,265.557 319.660,266.337 C310.871,267.22 291.924,267.363 262.824,267.363 C234.406,267.363 213.312,266.974 199.542,266.191 C186.748,265.410 176.544,265.19 168.927,265.19 C167.657,265.19 164.679,265.69 159.992,265.166 C156.671,284.913 154.766,300.606 154.279,312.240 C155.151,313.183 156.73,313.652 157.44,313.652 C159.177,313.652 160.486,312.427 160.971,309.976 C162.535,303.116 168.55,295.275 177.533,286.454 C187.11,277.633 202.303,273.222 223.410,273.222 C226.537,273.222 231.911,273.419 239.533,273.808 C241.583,303.302 242.609,333.185 242.609,363.457 L242.609,363.457 Z"/>
<path fill-rule="evenodd"  stroke="rgb(255, 255, 255)" stroke-width="8px" stroke-linecap="butt" stroke-linejoin="miter" fill="none"
 d="M255.499,20.999 C388.324,20.999 495.999,128.675 495.999,261.499 C495.999,394.324 388.324,501.999 255.499,501.999 C122.675,501.999 14.999,394.324 14.999,261.499 C14.999,128.675 122.675,20.999 255.499,20.999 Z"/>
<path fill-rule="evenodd"  stroke="rgb(255, 255, 255)" stroke-width="3px" stroke-linecap="butt" stroke-linejoin="miter" fill="none"
 d="M255.499,33.999 C381.144,33.999 482.999,135.855 482.999,261.499 C482.999,387.144 381.144,488.999 255.499,488.999 C129.855,488.999 27.999,387.144 27.999,261.499 C27.999,135.855 129.855,33.999 255.499,33.999 Z"/>
</svg>